<svg xmlns="http://www.w3.org/2000/svg" viewBox="0 0 160 160" style="enable-background:new 0 0 160 160" xml:space="preserve"><style>.st0{display:none}.st2{fill:#0f0}.st3,.st6{display:inline}.st6{fill:#ff5f5f}</style><path d="M12 22v116h136V22H12zm32 108H20V54h24v76zm32 0H52v-20h24v20zm0-28H52V82h24v20zm0-28H52V54h24v20zm32 56H84v-20h24v20zm0-28H84V82h24v20zm0-28H84V54h24v20zm32 56h-24v-20h24v20zm0-28h-24V82h24v20zm0-28h-24V54h24v20zm0-28H52V30h88v16z" id="レイヤー_16のコピー"/><g id="レイヤー_9"><path style="fill:none" d="M0 0h160v160H0z"/></g></svg>