<svg xmlns="http://www.w3.org/2000/svg" viewBox="0 0 160 160" style="enable-background:new 0 0 160 160" xml:space="preserve"><style>.st0{display:none}.st2{fill:#0f0}.st3,.st6{display:inline}.st6{fill:#ff5f5f}</style><path d="M136 144V8H24v136H8v8h60v-40h24v40h60v-8h-16zm-76-40H36V80h24v24zm0-32H36V48h24v24zm0-32H36V16h24v24zm32 64H68V80h24v24zm0-32H68V48h24v24zm0-32H68V16h24v24zm32 64h-24V80h24v24zm0-32h-24V48h24v24zm0-32h-24V16h24v24z" id="レイヤー_19"/><g id="レイヤー_9"><path style="fill:none" d="M0 0h160v160H0z"/></g></svg>