<svg xmlns="http://www.w3.org/2000/svg" viewBox="0 0 160 160" style="enable-background:new 0 0 160 160" xml:space="preserve"><style>.st0{display:none}.st2{fill:#0f0}.st3,.st6{display:inline}.st6{fill:#ff5f5f}</style><g id="レイヤー_16"><path d="M24 16h8v16h-8zM48 16h8v16h-8zM104 16h8v16h-8zM128 16h8v16h-8zM116 80c-19.9 0-36 16.1-36 36s16.1 36 36 36 36-16.1 36-36-16.1-36-36-36zm0 64c-15.5 0-28-12.5-28-28s12.5-28 28-28 28 12.5 28 28-12.5 28-28 28z"/><path d="M112 92h8v28h-8z"/><path transform="rotate(90 124 116)" d="M120 104h8v24h-8z"/><path d="M72.7 124H52v-20h21.7c2-6.9 5.5-13.1 10.3-18.2V76h13.7c5.6-2.6 11.8-4 18.3-4s12.7 1.4 18.3 4h5.7v3.1c4.7 3.1 8.8 7 12 11.6V24h-12v12h-16V24h-8v12h-16V24H60v12H44V24h-8v12H20V24H8v112h68.8c-1.9-3.7-3.3-7.8-4.1-12zM116 48h24v20h-24V48zm-32 0h24v20H84V48zm-32 0h24v20H52V48zm0 28h24v20H52V76zm-8 48H20v-20h24v20zm0-28H20V76h24v20zm0-28H20V48h24v20z"/></g><g id="レイヤー_9"><path style="fill:none" d="M0 0h160v160H0z"/></g></svg>