<svg xmlns="http://www.w3.org/2000/svg" viewBox="0 0 160 160" style="enable-background:new 0 0 160 160" xml:space="preserve"><style>.st0{display:none}.st2{fill:#0f0}.st3,.st6{display:inline}.st6{fill:#ff5f5f}</style><g id="レイヤー_20"><circle cx="80" cy="56" r="16"/><path d="M80 16c-22.1 0-40 17.9-40 40 0 5.7 1.2 11.1 3.3 15.9l.1.2c.6 1.3 1.2 2.6 2 3.8L80 144l34.6-68c.7-1.2 1.4-2.5 2-3.9l.1-.2C118.8 67 120 61.6 120 56c0-22.1-17.9-40-40-40zm0 68c-15.5 0-28-12.5-28-28s12.5-28 28-28 28 12.5 28 28-12.5 28-28 28z"/></g><g id="レイヤー_9"><path style="fill:none" d="M0 0h160v160H0z"/></g></svg>